# xmcd CD database file
#
# Track frame offsets:
#	150
#	19272
#	36742
#	61505
#	82020
#	106892
#	134955
#	155077
#	181785
#	200605
#
# Disc length: 2826 seconds
#
# Revision: 1
# Processed by: cddbd v1.5.2PL0 Copyright (c) Steve Scherf et al.
# Submitted via: CDex 1.70beta2
#
DISCID=8e0b080a
DTITLE=Saya - Beautiful Day
DYEAR=2003
DGENRE=Jazz
TTITLE0=Into the Sky
TTITLE1=I Wish
TTITLE2=Eternity
TTITLE3=Beautiful Day
TTITLE4=Pavane
TTITLE5=Mo Better Blues
TTITLE6=Snobby Cat
TTITLE7=In a Sentimental Mood
TTITLE8=What's Going On
TTITLE9=Wishing Well
EXTD=YEAR: 2003
EXTT0=
EXTT1=
EXTT2=
EXTT3=
EXTT4=
EXTT5=
EXTT6=
EXTT7=
EXTT8=
EXTT9=
PLAYORDER=
